<svg width="400" height="300" viewBox="0 0 400 300" fill="none" xmlns="http://www.w3.org/2000/svg">
  <!-- Plate -->
  <circle cx="200" cy="150" r="80" fill="#ECF0F1" stroke="#BDC3C7" stroke-width="2"/>
  <circle cx="200" cy="150" r="60" fill="white" stroke="#ECF0F1" stroke-width="2"/>
  
  <!-- Food items (Abstract) -->
  <rect x="170" y="130" width="40" height="15" rx="7.5" fill="#2ECC71"/>
  <circle cx="160" cy="160" r="12" fill="#F39C12"/>
  <rect x="180" y="165" width="30" height="10" rx="5" fill="#E67E22"/>
  <circle cx="220" cy="145" r="10" fill="#16A085"/>
  
  <!-- Sparkles -->
  <path d="M280 80L285 100L305 105L285 110L280 130L275 110L255 105L275 100L280 80Z" fill="#F1C40F">
    <animate attributeName="opacity" values="1;0.3;1" dur="1.5s" repeatCount="indefinite" />
  </path>
  <path d="M100 200L103 210L113 213L103 216L100 226L197 216L87 213L97 210L100 200Z" fill="#F1C40F" opacity="0.7">
    <animate attributeName="opacity" values="0.3;1;0.3" dur="2s" repeatCount="indefinite" />
  </path>
  <path d="M320 220L323 230L333 233L323 236L320 246L317 236L307 233L317 230L320 220Z" fill="#F1C40F">
    <animate attributeName="opacity" values="1;0.5;1" dur="1.8s" repeatCount="indefinite" />
  </path>
</svg>
